Coordinates
version=1
nRows=19
nColumns=18
inDegrees=yes

Units are S.I. units (second, meters, Newtons, ...)
If the header above contains a line with 'inDegrees', this indicates whether rotational values are in degrees (yes) or radians (no).

endheader
time	ground_thorax_rot_x	ground_thorax_rot_y	ground_thorax_rot_z	ground_thorax_tx	ground_thorax_ty	ground_thorax_tz	clav_prot	clav_elev	scapula_abduction	scapula_elevation	scapula_upward_rot	scapula_winging	plane_elv	shoulder_elv	axial_rot	elbow_flexion	pro_sup
      1.00000000	     -3.17666763	    -13.46309288	    -28.23368293	      0.02076049	     -0.01746873	      0.04348633	    -23.53247327	    -11.95417919	    -20.72587246	     -7.89103488	      5.49211409	     33.63438641	    -15.26694777	     29.92906072	     14.31092360	      0.05002899	     63.92270238
      1.02000000	     -3.36968408	    -13.71261114	    -28.57982721	      0.02266333	     -0.01768187	      0.04420645	    -23.60397583	    -11.75821797	    -20.86895264	     -7.77048630	      5.56727449	     33.57067386	    -16.90349637	     29.39976288	     16.62590959	      0.05002899	     63.92270238
      1.04000000	     -3.52892135	    -13.94660618	    -29.00587914	      0.02442204	     -0.01810732	      0.04492243	    -23.69850174	    -11.47570929	    -21.11611478	     -7.56781725	      5.57033188	     33.50038796	    -18.14792041	     29.13827371	     17.60620090	      0.05002899	     63.92270238
      1.06000000	     -3.70003882	    -14.17807112	    -29.45914351	      0.02608947	     -0.01861034	      0.04564784	    -23.78182104	    -11.16932923	    -21.41105641	     -7.31710092	      5.46352840	     33.44536674	    -19.15722037	     29.08199207	     17.79570217	      0.05002899	     63.92270238
      1.08000000	     -3.86687122	    -14.42301004	    -29.92556665	      0.02777069	     -0.01909408	      0.04636387	    -23.86355840	    -10.89403558	    -21.65697021	     -7.10782343	      5.42543857	     33.38768864	    -20.26777363	     28.99259936	     18.22155166	      0.05002899	     63.92270238
      1.10000000	     -4.02621638	    -14.66867857	    -30.37080621	      0.02944411	     -0.01952688	      0.04706304	    -23.95368743	    -10.62173588	    -21.90867471	     -6.90438791	      5.39900060	     33.33275972	    -21.37262386	     28.92907057	     18.65782134	      0.05002899	     63.92270238
      1.12000000	     -4.21222659	    -14.91262281	    -30.82454353	      0.03110134	     -0.02001054	      0.04775892	    -24.04153531	    -10.35594011	    -22.13555554	     -6.71596415	      5.41036547	     33.27269286	    -22.49257263	     28.82982432	     19.21826835	      0.05002899	     63.92270238
      1.14000000	     -4.37950912	    -15.12198330	    -31.27597164	      0.03274012	     -0.02047044	      0.04835499	    -24.13315607	    -10.11134488	    -22.33632630	     -6.55660023	      5.46962781	     33.21087841	    -23.69753800	     28.72470779	     19.92377294	      0.05002899	     63.92270238
      1.16000000	     -4.58844295	    -15.36504147	    -31.69850437	      0.03448704	     -0.02097419	      0.04903902	    -24.30298782	     -9.87001921	    -22.45398888	     -6.51322746	      5.92671942	     33.08129036	    -25.34831169	     28.04863246	     22.66508085	      0.05002899	     63.92270238
      1.18000000	     -4.73632988	    -15.59536084	    -32.16521571	      0.03602330	     -0.02155573	      0.04963410	    -24.37233754	     -9.56102433	    -22.70352746	     -6.27405899	      5.87163620	     33.02337635	    -26.14500690	     28.18560595	     22.68679382	      0.05002899	     63.92270238
      1.20000000	     -4.90756900	    -15.79791460	    -32.62940915	      0.03755994	     -0.02211505	      0.05014444	    -24.45343452	     -9.31037269	    -22.92067126	     -6.09406316	      5.87299040	     32.97440858	    -27.06678907	     28.27910578	     22.81192655	      0.05002899	     63.92270238
      1.22000000	     -5.10683730	    -15.97258370	    -33.08938514	      0.03907352	     -0.02266750	      0.05053742	    -24.52570369	     -9.10526670	    -23.04898377	     -5.97906138	      5.98987175	     32.90975373	    -28.17959744	     28.25786659	     23.19326952	      0.05002899	     63.92270238
      1.24000000	     -5.38490775	    -16.26805701	    -33.58880974	      0.04051665	     -0.02347931	      0.05120512	    -24.57019198	     -8.77736774	    -23.27108278	     -5.72281364	      5.92864651	     32.84787197	    -28.60303946	     28.36632963	     23.15706580	      0.05002899	     63.92270238
      1.26000000	     -5.54770910	    -16.40065426	    -34.00109718	      0.04198991	     -0.02391963	      0.05141242	    -24.64999583	     -8.62532976	    -23.36793775	     -5.66028337	      6.09173973	     32.79054332	    -29.83944333	     28.38849749	     23.54464505	      0.05002899	     63.92270238
      1.28000000	     -5.81200438	    -16.64961901	    -34.45188621	      0.04343529	     -0.02456128	      0.05175171	    -24.67597395	     -8.41311145	    -23.28887916	     -5.61317624	      6.48165387	     32.64851760	    -31.13380302	     28.09081901	     24.87732269	      0.05002899	     63.92270238
      1.30000000	     -6.07074121	    -16.86773010	    -34.88349041	      0.04472051	     -0.02533884	      0.05212917	    -24.72733850	     -8.10889434	    -23.52578970	     -5.36865315	      6.39679690	     32.60529514	    -31.48192674	     28.29223326	     24.69491947	      0.05002899	     63.92270238
      1.32000000	     -6.22814131	    -16.97898988	    -35.23922498	      0.04602747	     -0.02581291	      0.05215690	    -24.80678041	     -7.93164900	    -23.69410647	     -5.25393923	      6.43770467	     32.57288916	    -32.34050747	     28.52193273	     24.62184197	      0.05002899	     63.92270238
      1.34000000	     -6.55076636	    -17.18176707	    -35.70665848	      0.04728026	     -0.02647370	      0.05223749	    -24.76900431	     -7.78740515	    -23.54062419	     -5.22684082	      6.72999951	     32.45555424	    -33.44143328	     28.42424580	     24.85962135	      0.05002899	     63.92270238
      1.36000000	     -6.77029264	    -17.31514069	    -36.05215143	      0.04845856	     -0.02705172	      0.05225662	    -24.82668476	     -7.56879665	    -23.71132426	     -5.06973598	      6.73161436	     32.41790792	    -34.03908841	     28.63925431	     24.74474396	      0.05002899	     63.92270238
